<?xml version="1.0" standalone="no"?>
<!DOCTYPE svg PUBLIC "-//W3C//DTD SVG 20010904//EN"
 "http://www.w3.org/TR/2001/REC-SVG-20010904/DTD/svg10.dtd">
<svg version="1.0" xmlns="http://www.w3.org/2000/svg"
 width="1200.000000pt" height="1200.000000pt" viewBox="0 0 1200.000000 1200.000000"
 preserveAspectRatio="xMidYMid meet">

<g transform="translate(0.000000,1200.000000) scale(0.100000,-0.100000)"
fill="#000000" stroke="none">
<path d="M1248 11849 c-580 -67 -1032 -524 -1097 -1112 -15 -135 -15 -9399 0
-9534 63 -567 471 -1001 1039 -1104 112 -21 9528 -21 9640 0 207 38 389 116
549 236 279 210 451 514 490 868 15 135 15 9399 0 9534 -44 399 -260 737 -604
946 -141 86 -325 146 -508 166 -119 14 -9392 13 -9509 0z m8726 -515 c11 -10
16 -34 16 -75 l0 -59 54 0 c79 0 104 -12 112 -55 4 -25 1 -42 -10 -60 -15 -23
-23 -25 -86 -25 l-70 0 0 -164 c0 -91 4 -176 9 -189 13 -33 41 -41 92 -26 37
12 43 11 55 -6 30 -40 9 -108 -39 -125 -52 -18 -138 -12 -182 13 -71 39 -79
71 -83 300 l-4 197 -33 0 c-43 0 -65 22 -65 66 0 43 30 74 70 74 30 0 30 0 30
59 0 73 15 91 75 91 26 0 50 -6 59 -16z m735 -153 c22 -12 47 -31 55 -43 l16
-22 27 22 c94 75 191 89 275 39 36 -21 53 -40 75 -84 28 -58 28 -59 31 -285 3
-218 3 -227 -17 -247 -22 -22 -64 -27 -105 -12 l-24 10 -4 225 c-3 210 -4 226
-24 253 -16 21 -31 29 -61 31 -34 3 -45 -3 -86 -38 l-47 -42 0 -202 c0 -146
-3 -207 -13 -219 -16 -22 -74 -32 -109 -18 l-28 11 0 195 c0 268 -15 315 -97
315 -25 0 -45 -10 -78 -41 l-45 -42 0 -201 c0 -238 -1 -241 -80 -241 -82 0
-80 -7 -80 327 0 275 1 289 20 308 36 36 120 21 120 -21 0 -20 0 -20 36 2 87
53 164 60 243 20z m-8640 -936 c178 -37 345 -132 494 -281 l86 -86 103 25
c156 39 257 50 387 44 186 -9 311 -54 422 -155 120 -109 195 -259 235 -475
l18 -96 28 20 c49 35 190 97 273 119 110 30 286 38 379 16 208 -49 353 -202
417 -442 15 -56 23 -121 26 -225 l5 -145 112 -18 c379 -59 659 -243 761 -500
24 -62 27 -80 23 -161 -3 -78 -9 -102 -35 -156 -41 -82 -141 -183 -237 -238
-200 -114 -499 -193 -781 -206 l-100 -5 130 19 c174 26 271 47 385 83 241 77
424 208 497 356 25 51 28 68 28 157 0 92 -3 105 -31 165 -82 169 -270 295
-514 345 -60 13 -135 18 -253 19 -163 1 -168 2 -163 21 2 11 14 54 26 95 36
130 45 244 27 332 -42 205 -178 350 -365 389 -93 19 -281 7 -375 -25 -75 -25
-228 -96 -295 -138 -19 -11 -37 -17 -41 -12 -5 5 -16 52 -26 104 -65 347 -237
560 -497 616 -153 33 -383 6 -608 -70 -10 -3 -32 22 -70 81 -195 303 -543 428
-823 294 -125 -59 -199 -145 -233 -273 -28 -107 -8 -223 63 -367 26 -53 49
-99 51 -102 1 -3 -66 -6 -150 -6 -173 0 -265 -16 -364 -62 -115 -54 -182 -133
-220 -261 -21 -69 -23 -72 -23 -35 -1 93 53 219 124 288 48 47 131 92 210 114
28 8 108 17 178 20 112 5 128 8 123 22 -3 9 -20 57 -37 106 -28 79 -32 103
-33 200 -1 164 41 284 131 372 119 115 327 161 532 118z m4341 -3831 c114 -19
267 -68 373 -118 225 -107 450 -312 594 -541 39 -61 133 -255 133 -273 0 -28
22 -3 98 113 283 433 684 719 1131 805 458 89 879 16 1223 -212 127 -84 313
-271 401 -404 165 -248 283 -585 331 -944 32 -234 36 -443 36 -1887 l0 -1453
-435 0 -434 0 -4 1518 c-3 1495 -3 1519 -24 1648 -12 72 -29 160 -38 195 -124
492 -385 769 -788 834 -290 47 -560 -17 -790 -188 -253 -188 -423 -467 -478
-785 -18 -109 -19 -175 -19 -1668 l0 -1554 -435 0 -435 0 0 1503 c0 990 -4
1541 -11 1613 -49 503 -254 857 -584 1010 -137 63 -208 77 -400 77 -143 1
-182 -3 -247 -21 -195 -54 -358 -150 -508 -301 -146 -147 -255 -324 -328 -533
-71 -201 -66 -64 -69 -1790 l-4 -1558 -434 0 -434 0 -4 2213 c-3 1438 -8 2263
-15 2357 -6 80 -12 170 -14 200 l-3 55 379 3 c209 1 383 -1 388 -6 4 -4 14
-138 22 -297 23 -430 26 -475 39 -475 7 0 24 21 39 48 44 77 169 241 252 330
274 290 632 461 1050 502 121 12 328 4 446 -16z m-4022 -2501 l2 -2413 -445 0
-445 0 0 2408 c0 1325 3 2412 7 2415 3 4 203 6 442 5 l436 -3 3 -2412z"/>
</g>
</svg>
